<svg xmlns="http://www.w3.org/2000/svg" viewBox="0 0 32 32">
  <!-- Dynamis Spartan Helmet Favicon -->
  <!-- Blue color matching brand: #1976D2 -->
  <defs>
    <style>
      .helmet { fill: #1976D2; }
      .line { fill: none; stroke: #FFFFFF; stroke-width: 0.5; }
    </style>
  </defs>

  <!-- Main helmet shape -->
  <path class="helmet" d="
    M16 2
    C12 2 9 5 8 9
    L7 14
    L6 18
    C6 20 7 22 8 23
    L8 28
    C8 29 9 30 10 30
    L11 30
    L11 24
    C11 22 12 20 14 19
    L14 16
    C14 15 15 14 16 14
    C17 14 18 15 18 16
    L18 19
    C20 20 21 22 21 24
    L21 30
    L22 30
    C23 30 24 29 24 28
    L24 23
    C25 22 26 20 26 18
    L25 14
    L24 9
    C23 5 20 2 16 2
    Z
  "/>

  <!-- Crest/plume -->
  <path class="helmet" d="
    M16 2
    C18 2 22 3 24 6
    L26 4
    C26 3 25 2 24 2
    C22 1 19 1 16 2
    Z
  "/>

  <!-- Eye slit -->
  <path fill="#FFFFFF" d="
    M12 17
    L12 19
    C13 18 14 17 16 17
    C18 17 19 18 20 19
    L20 17
    C19 16 17 15 16 15
    C15 15 13 16 12 17
    Z
  "/>
</svg>
